<svg width="180" height="40" viewBox="0 0 180 40" fill="none" xmlns="http://www.w3.org/2000/svg">
  <!-- Server/Cloud Icon -->
  <g>
    <path d="M12 8C7.58172 8 4 11.5817 4 16V24C4 28.4183 7.58172 32 12 32H28C32.4183 32 36 28.4183 36 24V16C36 11.5817 32.4183 8 28 8H12Z" fill="#2D3748" />
    <rect x="8" y="14" width="24" height="2" rx="1" fill="#E53E3E" />
    <rect x="8" y="19" width="24" height="2" rx="1" fill="#E53E3E" />
    <rect x="8" y="24" width="24" height="2" rx="1" fill="#E53E3E" />
    <circle cx="30" cy="14" r="1.5" fill="#38B2AC" />
    <circle cx="30" cy="19" r="1.5" fill="#38B2AC" />
    <circle cx="30" cy="24" r="1.5" fill="#38B2AC" />
    <!-- Pin element -->
    <path d="M20 4L23.5 10L16.5 10L20 4Z" fill="#E53E3E" />
    <rect x="19" y="10" width="2" height="6" fill="#E53E3E" />
  </g>

  <!-- Text: SiliconPin -->
  <path d="M48.344 24.88C46.824 24.88 45.584 24.536 44.624 23.848C43.664 23.144 43.184 22.104 43.184 20.728C43.184 19.912 43.392 19.2 43.808 18.592C44.224 17.984 44.888 17.52 45.8 17.2C46.728 16.864 47.936 16.696 49.424 16.696H52.112V16.336C52.112 15.472 51.848 14.84 51.32 14.44C50.808 14.04 50.096 13.84 49.184 13.84C48.352 13.84 47.664 14.016 47.12 14.368C46.576 14.704 46.248 15.2 46.136 15.856H43.544C43.656 14.896 44.016 14.072 44.624 13.384C45.248 12.696 46.016 12.176 46.928 11.824C47.856 11.456 48.864 11.272 49.952 11.272C51.792 11.272 53.232 11.728 54.272 12.64C55.312 13.552 55.832 14.824 55.832 16.456V24.64H52.832L52.496 22.48C52.112 23.168 51.56 23.728 50.84 24.16C50.136 24.64 49.28 24.88 48.344 24.88ZM49 22.36C49.8 22.36 50.464 22.12 50.992 21.64C51.536 21.16 51.904 20.536 52.096 19.768V18.88H49.664C48.624 18.88 47.888 19.032 47.456 19.336C47.04 19.64 46.832 20.04 46.832 20.536C46.832 21.064 47.032 21.48 47.432 21.784C47.848 22.168 48.36 22.36 49 22.36ZM58.0069 24.64V6.8H61.6869V14.56C62.0709 13.472 62.6549 12.648 63.4389 12.088C64.2229 11.528 65.2069 11.248 66.3909 11.248C68.0229 11.248 69.2949 11.776 70.2069 12.832C71.1189 13.888 71.5749 15.344 71.5749 17.2V24.64H67.8949V17.584C67.8949 16.512 67.6549 15.696 67.1749 15.136C66.6949 14.576 66.0229 14.296 65.1589 14.296C64.2629 14.296 63.5189 14.608 62.9269 15.232C62.3349 15.84 62.0389 16.712 62.0389 17.848V24.64H58.0069ZM79.0305 11.248C80.0625 11.248 80.9665 11.448 81.7505 11.848C82.5345 12.232 83.1745 12.776 83.6705 13.48L83.9825 11.488H87.4065V24.352C87.4065 25.728 87.1025 26.912 86.4945 27.904C85.8865 28.896 85.0065 29.664 83.8545 30.208C82.7025 30.752 81.3345 31.024 79.7505 31.024C77.6225 31.024 75.9345 30.624 74.6865 29.824C73.4545 29.04 72.7665 27.968 72.6225 26.608H76.2785C76.4705 27.088 76.8545 27.464 77.4305 27.736C78.0225 28.024 78.7745 28.168 79.6865 28.168C80.7345 28.168 81.5665 27.904 82.1825 27.376C82.7985 26.864 83.1065 26.032 83.1065 24.88V22.84C82.6265 23.512 82.0065 24.048 81.2465 24.448C80.4865 24.832 79.6145 25.024 78.6305 25.024C77.3825 25.024 76.2545 24.728 75.2465 24.136C74.2545 23.528 73.4625 22.68 72.8705 21.592C72.2945 20.504 72.0065 19.248 72.0065 17.824C72.0065 16.416 72.2945 15.176 72.8705 14.104C73.4625 13.016 74.2545 12.176 75.2465 11.584C76.2385 11.36 77.3825 11.248 79.0305 11.248ZM79.8305 21.976C80.9985 21.976 81.9265 21.592 82.6145 20.824C83.3185 20.04 83.6705 19.032 83.6705 17.8C83.6705 16.584 83.3185 15.592 82.6145 14.824C81.9265 14.04 80.9985 13.648 79.8305 13.648C78.6625 13.648 77.7265 14.04 77.0225 14.824C76.3345 15.592 75.9905 16.584 75.9905 17.8C75.9905 19.032 76.3345 20.04 77.0225 20.824C77.7265 21.592 78.6625 21.976 79.8305 21.976ZM90.2951 24.64V11.488H93.2951L93.6311 13.648C94.0151 12.944 94.5511 12.368 95.2391 11.92C95.9431 11.472 96.7831 11.248 97.7591 11.248C97.9511 11.248 98.1511 11.256 98.3591 11.272C98.5831 11.288 98.7671 11.312 98.9111 11.344V14.872C98.7511 14.824 98.5111 14.784 98.1911 14.752C97.8871 14.704 97.5911 14.68 97.3031 14.68C96.1831 14.68 95.3191 14.992 94.7111 15.616C94.1191 16.224 93.8231 17.104 93.8231 18.256V24.64H90.2951ZM106.393 24.88C104.873 24.88 103.633 24.536 102.673 23.848C101.713 23.144 101.233 22.104 101.233 20.728C101.233 19.912 101.441 19.2 101.857 18.592C102.273 17.984 102.937 17.52 103.849 17.2C104.777 16.864 105.985 16.696 107.473 16.696H110.161V16.336C110.161 15.472 109.897 14.84 109.369 14.44C108.857 14.04 108.145 13.84 107.233 13.84C106.401 13.84 105.713 14.016 105.169 14.368C104.625 14.704 104.297 15.2 104.185 15.856H101.593C101.705 14.896 102.065 14.072 102.673 13.384C103.297 12.696 104.065 12.176 104.977 11.824C105.905 11.456 106.913 11.272 108.001 11.272C109.841 11.272 111.281 11.728 112.321 12.64C113.361 13.552 113.881 14.824 113.881 16.456V24.64H110.881L110.545 22.48C110.161 23.168 109.609 23.728 108.889 24.16C108.185 24.64 107.329 24.88 106.393 24.88ZM107.049 22.36C107.849 22.36 108.513 22.12 109.041 21.64C109.585 21.16 109.953 20.536 110.145 19.768V18.88H107.713C106.673 18.88 105.937 19.032 105.505 19.336C105.089 19.64 104.881 20.04 104.881 20.536C104.881 21.064 105.081 21.48 105.481 21.784C105.897 22.168 106.409 22.36 107.049 22.36ZM117.624 24.64V11.488H120.624L120.984 14.248C121.352 13.272 121.912 12.512 122.664 11.968C123.416 11.408 124.336 11.128 125.424 11.128C126.752 11.128 127.816 11.536 128.616 12.352C129.416 13.168 129.816 14.336 129.816 15.856V24.64H126.288V16.312C126.288 15.464 126.072 14.808 125.64 14.344C125.224 13.864 124.624 13.624 123.84 13.624C122.976 13.624 122.264 13.928 121.704 14.536C121.16 15.128 120.888 15.92 120.888 16.912V24.64H117.624ZM142.188 24.88C140.444 24.88 139.06 24.304 138.036 23.152C137.028 22 136.492 20.408 136.428 18.376L136.404 17.704L136.428 17.032C136.508 15.016 137.044 13.424 138.036 12.256C139.044 11.088 140.444 10.504 142.236 10.504C143.412 10.504 144.436 10.76 145.308 11.272C146.18 11.784 146.852 12.528 147.324 13.504C147.796 14.464 148.028 15.632 148.02 17.008V18.088H139.908C139.956 19.368 140.292 20.352 140.916 21.04C141.54 21.712 142.428 22.048 143.58 22.048C144.404 22.048 145.084 21.872 145.62 21.52C146.172 21.152 146.564 20.648 146.796 20.008H149.844C149.54 21.4 148.86 22.512 147.804 23.344C146.748 24.368 145.62 24.88 142.188 24.88ZM142.236 13.336C141.236 13.336 140.428 13.624 139.812 14.2C139.196 14.76 138.82 15.576 138.684 16.648H145.236C145.204 15.576 144.908 14.76 144.348 14.2C143.788 13.624 143.092 13.336 142.236 13.336ZM151.55 24.64V11.488H154.55L154.91 14.248C155.278 13.272 155.838 12.512 156.59 11.968C157.342 11.408 158.262 11.128 159.35 11.128C160.678 11.128 161.742 11.536 162.542 12.352C163.342 13.168 163.742 14.336 163.742 15.856V24.64H160.214V16.312C160.214 15.464 159.998 14.808 159.566 14.344C159.15 13.864 158.55 13.624 157.766 13.624C156.902 13.624 156.19 13.928 155.63 14.536C155.086 15.128 154.814 15.92 154.814 16.912V24.64H151.55Z" fill="#2D3748"/>
</svg>
